# xmcd
#
# Track frame offsets: 
#        150
#        15849
#        29569
#        46542
#        61857
#        79053
#        96201
#        110806
#        133791
#        147212
#        164262
#        179222
#        194259
#        207798
#        226980
#        245535
#
# Disc length: 3638 seconds
#
# Revision: 2
# Processed by: cddbd v1.5.2PL0 Copyright (c) Steve Scherf et al.
# Submitted via: ExactAudioCopy v1.3
#
DISCID=d70e3410
DTITLE=Billy Price - The Soul Collection
DYEAR=1997
DGENRE=Blues. Soul
TTITLE0=I Didn't Know The Meaning Of Pain
TTITLE1=Let It Happen
TTITLE2=Beautiful Feeling
TTITLE3=Gonna Forget About You
TTITLE4=Your Time To Cry
TTITLE5=That's How It Is
TTITLE6=A Man Must Stand For Something
TTITLE7=You Got Me Knocking
TTITLE8=I Can't Stand It
TTITLE9=I Betcha Didn't Know That
TTITLE10=It's In The Wind
TTITLE11=Let Yourself Go
TTITLE12=I Die A Little Each Day
TTITLE13=Something 'Bout 'Cha
TTITLE14=Why Can't We Be Lovers
TTITLE15=Dangerous Highway
EXTD=
EXTT0=
EXTT1=
EXTT2=
EXTT3=
EXTT4=
EXTT5=
EXTT6=
EXTT7=
EXTT8=
EXTT9=
EXTT10=
EXTT11=
EXTT12=
EXTT13=
EXTT14=
EXTT15=
PLAYORDER=
